# xmcd
#
# Track frame offsets:
#	150
#	15576
#	31418
#	44560
#	58816
#	72317
#	87901
#	100867
#	115146
#
# Disc length: 1750 seconds
#
# Revision: 1
# Processed by: cddbd v1.5.2PL0 Copyright (c) Steve Scherf et al.
# Submitted via: audiograbber 1.83.01
#
DISCID=7506d409
DTITLE=Troy Robinson - Miami Nights
DYEAR=1900
DGENRE=Country
TTITLE0=Don't Breathe A Word Of This
TTITLE1=Miami Nights
TTITLE2=It's Hard Work Havin' Fun
TTITLE3=There's Gotta Be A Better Way To Go
TTITLE4=Waltz In A Soft Texas Rain
TTITLE5=There's Just No Way Around It
TTITLE6=Right Now
TTITLE7=Big Ol' Time
TTITLE8=Blue Flame
EXTD=Produced by Clyde Brooks
EXTT0=
EXTT1=
EXTT2=
EXTT3=
EXTT4=
EXTT5=
EXTT6=
EXTT7=
EXTT8=
PLAYORDER=
